# xmcd CD database file
#
# Track frame offsets:
#	150
#	14087
#	27962
#
# Disc length: 529 seconds
#
# Revision: 1
# Processed by: cddbd v1.5.2PL0 Copyright (c) Steve Scherf et al.
# Submitted via: CDex 1.40Beta9
#
DISCID=1e020f03
DTITLE=Merle Haggard and Jewel - That's The Way Love Goes [CD Single)
DYEAR=1999
DGENRE=Country
TTITLE0=That's The Way Love Goes 
TTITLE1=That's The Way Love Goes 
TTITLE2=That's The Way Love Goes 
EXTD=YEAR: 1999 ID3G: 2
EXTT0=
EXTT1=
EXTT2=
PLAYORDER=
